<?xml version="1.0" encoding="utf-8"?>
<!-- Generator: Adobe Illustrator 26.1.0, SVG Export Plug-In . SVG Version: 6.00 Build 0)  -->
<svg version="1.1" id="Layer_1" xmlns="http://www.w3.org/2000/svg" xmlns:xlink="http://www.w3.org/1999/xlink" x="0px" y="0px"
	 viewBox="0 0 35 35" style="enable-background:new 0 0 35 35;" xml:space="preserve">
<style type="text/css">
	.st0{fill:#18B2E8;}
	.st1{fill:#E9580C;}
	.st2{fill:#004F9E;}
	.st3{fill:#595A5C;}
	.st4{fill:#59595C;}
	.st5{opacity:0.51;}
	.st6{fill:#00BCF1;}
	.st7{fill:#F16322;}
	.st8{fill:#005AA9;}
	.st9{fill:#5A5B5C;}
	.st10{fill:#B8E0F5;}
	.st11{fill:#22AEE4;}
	.st12{fill:#E6590F;}
</style>
<g>
	<path class="st0" d="M26.65,31.64c-0.35,0.03-0.71,0.04-1.06,0.03c-0.8-0.01-1.6-0.1-2.39-0.24c-1.67-0.29-3.28-0.83-4.81-1.55
		c-2.16-1.01-4.07-2.54-5.55-4.41c-0.35-0.44-0.67-0.89-0.96-1.36c-1.39-2.22-2.48-5.03-2.12-7.69c0.29-2.14,1.45-4.1,3.21-5.35
		c1.32-0.93,2.91-1.43,4.52-1.43c3.3,0,6.11,2.03,7.28,4.92c0.29-0.07,0.45-0.48,0.55-0.44c-0.11-0.09-3.4-6.18-4.15-5.67
		c-1.12-1.1-3.48-2.32-4.92-2.84c-4.11-1.49-7.76,0.13-8.81,0.6c-0.98,0.44-4.78,2.27-6.4,6.24c-0.05,0.11-0.09,0.23-0.13,0.34
		c-0.42,1.5-0.66,3.08-0.66,4.72c0,9.53,7.73,17.26,17.26,17.26c0.01,0,0.01,0,0.02,0c0.25,0,0.49-0.01,0.73-0.02
		c0.08,0,0.16-0.01,0.24-0.01c0.22-0.01,0.43-0.03,0.64-0.05c0.13-0.01,0.26-0.03,0.4-0.04c0.08-0.01,0.16-0.02,0.23-0.03
		c2.22-0.35,3.99-0.98,5.29-1.59c0.89-0.43,1.73-0.94,2.52-1.51C27.38,31.65,26.87,31.62,26.65,31.64z"/>
	<path class="st1" d="M34.77,17.5c0.12-5.03-2.45-10-6.24-13.21c-0.24-0.2-0.49-0.4-0.74-0.59c-1.82-1.38-3.91-2.4-6.13-2.95
		c-0.31-0.08-0.65-0.11-0.94-0.21c0.16,0.05-2.42-0.62-5.63-0.14c-2.32,0.34,8.26,2.32,9.62,4.28c1.21,1.74,2.18,3.69,2.35,5.8
		c0.41,5.01,0.66,4.41,0.08,5.34c-0.19,0.31-0.03,1.08-0.12,1.45c-0.12,0.46-0.35,0.87-0.54,1.31c-0.37,0.87-0.49,1.84-1.09,2.56
		c-0.73,0.89-1.56,1.47-2.56,2.06c-1.32,1.23-3.07,2.01-4.99,2.1c1.1,0.87,3.92,3.18,8.54,2.49c4.75-0.71,8.09-5.11,8.38-9.76
		C34.76,17.86,34.77,17.68,34.77,17.5z"/>
	<path class="st2" d="M24.56,3.17c-2.04-1.86-5.5-3.09-8.35-2.88C7.27,0.94,0.22,8.4,0.22,17.5c0,2.21,0.42,4.33,1.18,6.28
		c-0.19-0.6-0.87-2.76-0.48-5.72c0-0.02,0.01-0.05,0.01-0.07c0.68-4.66,3.48-7.6,6.45-9.25c3.07-1.7,9.13-2.93,14.38,1.65
		c1.79,1.38,3.55,4.42,3.55,7.08c0,3.71-2.58,6.81-6.04,7.63c2.85-0.63,5.84-2.05,7.55-4.36C30.69,15.53,29.21,7.42,24.56,3.17z"/>
</g>
</svg>
