<?xml version="1.0" encoding="UTF-8"?>
<svg version="1.1" viewBox="0 0 856 944" width="1280" height="1280" xmlns="http://www.w3.org/2000/svg">
<path transform="translate(0)" d="m0 0h856v944h-856z" fill="#FEFEFE"/>
<path transform="translate(567,478)" d="m0 0h13l24 1 9 27 8 16 8 11 9 10 9 8 14 9 16 7 9 3 16 3h21l17-3 18-6 14-7 5-1 4 8 7 24 2 14v23l-5 25-7 18-6 12-10 14-12 13-9 8-15 10-16 8-19 7-22 6-33 6-52 8-30 6-26 7-29 10-29 12-33 15-29 14-21 10-38 19-28 13-28 12-28 10-18 5-23 5-20 3h-26l-24-4-24-8-16-8-11-7-12-9-11-10-13-17-8-14-7-18-5-21-3-22v-31l3-27 6-27 11-33 11-26 17-36 7-15 3-1 15 4 11 3-5 32 1 16 4 22 6 17 8 16 8 12 11 13 8 8 17 13 20 11 12-3 24-10 25-12 17-10 24-16 13-10 14-12 8-7 28-28 7-8 12-15 10-14 10-15 1-1h22l21-3 18-6 15-8 13-10 11-11 9-13 8-16 5-14 3-12 1-1z" fill="#BF1628"/>
<path transform="translate(343,42)" d="m0 0h452l-1 5-12 36-14 41-12 36-12 35-12 36-17 50-15 44-9 27-5 8-5 1h-8l-14-29-17-35-13-27-8-16-10-21-37-74-4-9-2-1-2 6-9 17-11 23-21 42-11 23-22 44-9 19-8 16-11 21-5 1-10-4-4-10-17-50-22-65-24-71-21-62-14-41-4-12z" fill="#BF1628"/>
<path transform="translate(420,398)" d="m0 0h16l10 2 12 5 10 6 8 7 9 12 6 13 3 11v21l-4 15-8 14-9 10-9 7-14 7-14 3h-17l-14-3-14-7-12-11-7-8-8-16-3-17v-9l2-13 5-13 8-12 9-9 10-7 11-5z" fill="#BF1628"/>
<path transform="translate(130,399)" d="m0 0h21l17 5 13 8 6 5 11 14 6 13 3 13v16l-2 11-4 10-6 10-9 10-8 7-16 8-14 3h-16l-16-4-11-6-10-8-7-7-8-13-5-14-1-10v-10l2-12 5-13 7-11 11-11 9-6 8-4 9-3z" fill="#BF1628"/>
<path transform="translate(708,398)" d="m0 0h9l15 2 16 7 9 7 5 5 8 10 7 14 3 13v16l-3 14-5 12-7 9-4 5-11 9-14 7-15 3h-15l-14-3-11-5-11-8-8-8-9-14-3-8-3-14v-11l3-16 8-16 7-9 10-9 12-7 13-4z" fill="#BF1628"/>
</svg>
